<mxfile host="app.diagrams.net" modified="2024-03-21T15:47:30.464Z" agent="Mozilla/5.0 (Macintosh; Intel Mac OS X 10_15_7) AppleWebKit/537.36 (KHTML, like Gecko) Chrome/116.0.0.0 Safari/537.36" etag="_9WexDbaCrtCjNg7XolY" version="24.0.7" type="device">
  <diagram name="第 1 页" id="n9D54emt0kach4g6EPNV">
    <mxGraphModel dx="954" dy="515" grid="1" gridSize="10" guides="1" tooltips="1" connect="1" arrows="1" fold="1" page="1" pageScale="1" pageWidth="3300" pageHeight="4681" math="0" shadow="0">
      <root>
        <mxCell id="0" />
        <mxCell id="1" parent="0" />
        <mxCell id="ZMjJjni6RbTrYaw7RHLS-1" value="" style="rounded=0;whiteSpace=wrap;html=1;" parent="1" vertex="1">
          <mxGeometry x="570" y="120" width="80" height="40" as="geometry" />
        </mxCell>
        <mxCell id="ZMjJjni6RbTrYaw7RHLS-4" value="" style="rounded=0;whiteSpace=wrap;html=1;" parent="1" vertex="1">
          <mxGeometry x="330" y="120" width="80" height="40" as="geometry" />
        </mxCell>
        <mxCell id="ZMjJjni6RbTrYaw7RHLS-5" value="" style="rounded=0;whiteSpace=wrap;html=1;fillColor=#eeeeee;strokeColor=#36393d;" parent="1" vertex="1">
          <mxGeometry x="410" y="120" width="160" height="40" as="geometry" />
        </mxCell>
        <mxCell id="ZMjJjni6RbTrYaw7RHLS-10" value="" style="shape=waypoint;sketch=0;fillStyle=solid;size=6;pointerEvents=1;points=[];fillColor=default;resizable=0;rotatable=0;perimeter=centerPerimeter;snapToPoint=1;rounded=0;" parent="1" vertex="1">
          <mxGeometry x="570" y="120" width="80" height="40" as="geometry" />
        </mxCell>
        <mxCell id="ZMjJjni6RbTrYaw7RHLS-11" value="..." style="rounded=0;whiteSpace=wrap;html=1;" parent="1" vertex="1">
          <mxGeometry x="650" y="120" width="80" height="40" as="geometry" />
        </mxCell>
        <mxCell id="ZMjJjni6RbTrYaw7RHLS-12" value="&lt;b&gt;&lt;font style=&quot;font-size: 15px;&quot;&gt;栈桢&lt;/font&gt;&lt;/b&gt;" style="text;html=1;strokeColor=none;fillColor=none;align=center;verticalAlign=middle;whiteSpace=wrap;rounded=0;" parent="1" vertex="1">
          <mxGeometry x="170" y="125" width="60" height="30" as="geometry" />
        </mxCell>
        <mxCell id="ZMjJjni6RbTrYaw7RHLS-14" value="" style="endArrow=classic;html=1;rounded=0;entryX=0.5;entryY=0;entryDx=0;entryDy=0;" parent="1" source="ZMjJjni6RbTrYaw7RHLS-36" edge="1">
          <mxGeometry width="50" height="50" relative="1" as="geometry">
            <mxPoint x="520" y="240" as="sourcePoint" />
            <mxPoint x="370" y="290" as="targetPoint" />
          </mxGeometry>
        </mxCell>
        <mxCell id="ZMjJjni6RbTrYaw7RHLS-15" value="拥有" style="text;html=1;align=center;verticalAlign=middle;resizable=0;points=[];autosize=1;strokeColor=none;fillColor=none;" parent="1" vertex="1">
          <mxGeometry x="360" y="200" width="50" height="30" as="geometry" />
        </mxCell>
        <mxCell id="ZMjJjni6RbTrYaw7RHLS-16" value="&lt;b&gt;&lt;font style=&quot;font-size: 15px;&quot;&gt;堆&lt;/font&gt;&lt;/b&gt;" style="text;html=1;strokeColor=none;fillColor=none;align=center;verticalAlign=middle;whiteSpace=wrap;rounded=0;" parent="1" vertex="1">
          <mxGeometry x="180" y="295" width="60" height="30" as="geometry" />
        </mxCell>
        <mxCell id="ZMjJjni6RbTrYaw7RHLS-17" value="" style="shape=curlyBracket;whiteSpace=wrap;html=1;rounded=1;labelPosition=left;verticalLabelPosition=middle;align=right;verticalAlign=middle;direction=south;" parent="1" vertex="1">
          <mxGeometry x="330" y="70" width="80" height="50" as="geometry" />
        </mxCell>
        <mxCell id="ZMjJjni6RbTrYaw7RHLS-20" value="" style="shape=curlyBracket;whiteSpace=wrap;html=1;rounded=1;labelPosition=left;verticalLabelPosition=middle;align=right;verticalAlign=middle;direction=south;size=0.3;" parent="1" vertex="1">
          <mxGeometry x="610" y="75" width="160" height="45" as="geometry" />
        </mxCell>
        <mxCell id="ZMjJjni6RbTrYaw7RHLS-33" value="&lt;b&gt;point&lt;/b&gt;" style="text;html=1;strokeColor=none;fillColor=none;align=center;verticalAlign=middle;whiteSpace=wrap;rounded=0;" parent="1" vertex="1">
          <mxGeometry x="326.5" y="45" width="87" height="30" as="geometry" />
        </mxCell>
        <mxCell id="ZMjJjni6RbTrYaw7RHLS-35" value="&lt;b&gt;label&lt;/b&gt;" style="text;html=1;strokeColor=none;fillColor=none;align=center;verticalAlign=middle;whiteSpace=wrap;rounded=0;" parent="1" vertex="1">
          <mxGeometry x="660" y="40" width="60" height="30" as="geometry" />
        </mxCell>
        <mxCell id="ZMjJjni6RbTrYaw7RHLS-36" value="" style="shape=waypoint;sketch=0;fillStyle=solid;size=6;pointerEvents=1;points=[];fillColor=#eeeeee;resizable=0;rotatable=0;perimeter=centerPerimeter;snapToPoint=1;rounded=0;strokeColor=#36393d;" parent="1" vertex="1">
          <mxGeometry x="330" y="120" width="80" height="40" as="geometry" />
        </mxCell>
        <mxCell id="ZMjJjni6RbTrYaw7RHLS-37" value="(" style="rounded=0;whiteSpace=wrap;html=1;" parent="1" vertex="1">
          <mxGeometry x="590" y="290" width="40" height="40" as="geometry" />
        </mxCell>
        <mxCell id="ZMjJjni6RbTrYaw7RHLS-38" value="0" style="rounded=0;whiteSpace=wrap;html=1;" parent="1" vertex="1">
          <mxGeometry x="630" y="290" width="40" height="40" as="geometry" />
        </mxCell>
        <mxCell id="ZMjJjni6RbTrYaw7RHLS-39" value="." style="rounded=0;whiteSpace=wrap;html=1;" parent="1" vertex="1">
          <mxGeometry x="670" y="290" width="40" height="40" as="geometry" />
        </mxCell>
        <mxCell id="ZMjJjni6RbTrYaw7RHLS-40" value="6" style="rounded=0;whiteSpace=wrap;html=1;" parent="1" vertex="1">
          <mxGeometry x="710" y="290" width="40" height="40" as="geometry" />
        </mxCell>
        <mxCell id="ZMjJjni6RbTrYaw7RHLS-42" value="" style="endArrow=classic;html=1;rounded=0;entryX=0.5;entryY=0;entryDx=0;entryDy=0;" parent="1" source="ZMjJjni6RbTrYaw7RHLS-10" target="ZMjJjni6RbTrYaw7RHLS-37" edge="1">
          <mxGeometry width="50" height="50" relative="1" as="geometry">
            <mxPoint x="610" y="270" as="sourcePoint" />
            <mxPoint x="660" y="220" as="targetPoint" />
          </mxGeometry>
        </mxCell>
        <mxCell id="4CJa9e1_BcUTYDfMxxW6-3" value="2&lt;span style=&quot;color: rgba(0, 0, 0, 0); font-family: monospace; font-size: 0px; text-align: start; text-wrap: nowrap;&quot;&gt;%3CmxGraphModel%3E%3Croot%3E%3CmxCell%20id%3D%220%22%2F%3E%3CmxCell%20id%3D%221%22%20parent%3D%220%22%2F%3E%3CmxCell%20id%3D%222%22%20value%3D%226%22%20style%3D%22rounded%3D0%3BwhiteSpace%3Dwrap%3Bhtml%3D1%3B%22%20vertex%3D%221%22%20parent%3D%221%22%3E%3CmxGeometry%20x%3D%22710%22%20y%3D%22285%22%20width%3D%2240%22%20height%3D%2240%22%20as%3D%22geometry%22%2F%3E%3C%2FmxCell%3E%3C%2Froot%3E%3C%2FmxGraphModel%3E&lt;/span&gt;" style="rounded=0;whiteSpace=wrap;html=1;" vertex="1" parent="1">
          <mxGeometry x="750" y="290" width="40" height="40" as="geometry" />
        </mxCell>
        <mxCell id="4CJa9e1_BcUTYDfMxxW6-4" value="5" style="rounded=0;whiteSpace=wrap;html=1;" vertex="1" parent="1">
          <mxGeometry x="790" y="290" width="40" height="40" as="geometry" />
        </mxCell>
        <mxCell id="4CJa9e1_BcUTYDfMxxW6-5" value="," style="rounded=0;whiteSpace=wrap;html=1;" vertex="1" parent="1">
          <mxGeometry x="830" y="290" width="40" height="40" as="geometry" />
        </mxCell>
        <mxCell id="4CJa9e1_BcUTYDfMxxW6-6" value="0" style="rounded=0;whiteSpace=wrap;html=1;" vertex="1" parent="1">
          <mxGeometry x="870" y="290" width="40" height="40" as="geometry" />
        </mxCell>
        <mxCell id="4CJa9e1_BcUTYDfMxxW6-7" value="." style="rounded=0;whiteSpace=wrap;html=1;" vertex="1" parent="1">
          <mxGeometry x="910" y="290" width="40" height="40" as="geometry" />
        </mxCell>
        <mxCell id="4CJa9e1_BcUTYDfMxxW6-8" value="5" style="rounded=0;whiteSpace=wrap;html=1;" vertex="1" parent="1">
          <mxGeometry x="950" y="290" width="40" height="40" as="geometry" />
        </mxCell>
        <mxCell id="4CJa9e1_BcUTYDfMxxW6-9" value=")" style="rounded=0;whiteSpace=wrap;html=1;" vertex="1" parent="1">
          <mxGeometry x="990" y="290" width="40" height="40" as="geometry" />
        </mxCell>
        <mxCell id="4CJa9e1_BcUTYDfMxxW6-10" value="12" style="rounded=0;whiteSpace=wrap;html=1;" vertex="1" parent="1">
          <mxGeometry x="730" y="120" width="80" height="40" as="geometry" />
        </mxCell>
        <mxCell id="4CJa9e1_BcUTYDfMxxW6-12" value="" style="rounded=0;whiteSpace=wrap;html=1;fillColor=#eeeeee;strokeColor=#36393d;" vertex="1" parent="1">
          <mxGeometry x="810" y="120" width="80" height="40" as="geometry" />
        </mxCell>
        <mxCell id="4CJa9e1_BcUTYDfMxxW6-13" value="" style="rounded=0;whiteSpace=wrap;html=1;fillColor=#eeeeee;strokeColor=#36393d;" vertex="1" parent="1">
          <mxGeometry x="250" y="120" width="80" height="40" as="geometry" />
        </mxCell>
        <mxCell id="4CJa9e1_BcUTYDfMxxW6-14" value="" style="rounded=0;whiteSpace=wrap;html=1;fillColor=#eeeeee;strokeColor=#36393d;" vertex="1" parent="1">
          <mxGeometry x="250" y="290" width="80" height="40" as="geometry" />
        </mxCell>
        <mxCell id="4CJa9e1_BcUTYDfMxxW6-15" value="" style="rounded=0;whiteSpace=wrap;html=1;fillColor=#eeeeee;strokeColor=#36393d;" vertex="1" parent="1">
          <mxGeometry x="490" y="290" width="80" height="40" as="geometry" />
        </mxCell>
        <mxCell id="4CJa9e1_BcUTYDfMxxW6-16" value="0.625" style="rounded=0;whiteSpace=wrap;html=1;" vertex="1" parent="1">
          <mxGeometry x="330" y="290" width="80" height="40" as="geometry" />
        </mxCell>
        <mxCell id="4CJa9e1_BcUTYDfMxxW6-17" value="0.5" style="rounded=0;whiteSpace=wrap;html=1;" vertex="1" parent="1">
          <mxGeometry x="410" y="290" width="80" height="40" as="geometry" />
        </mxCell>
      </root>
    </mxGraphModel>
  </diagram>
</mxfile>
